<?xml version="1.0" encoding="utf-8"?>
<!-- Generator: Adobe Illustrator 27.5.0, SVG Export Plug-In . SVG Version: 6.00 Build 0)  -->
<svg xmlns="http://www.w3.org/2000/svg" viewBox="1045 1050 1000 1010" width="100" height="100" style="display:block; margin-left:auto; margin-right:auto;">
<g>
	<path style="fill:#707272;" d="M2028.924,1278.281c-10.273-23.827-47.561-55.136-63.191-75.792
		c-8.084-10.684-16.646-21.764-28.731-27.431c-8.581-4.024-18.221-4.957-27.645-5.832c-39.761-3.695-79.521-7.391-119.281-11.085
		c-48.325-4.491-146.896,10.571-195.413,11.759c-89.352,2.186-232.796-15.058-248.875-7.681
		c-16.079,7.376-105.615,76.4-107.894,80.833c-2.79,5.428-10.431,181.889-8.835,205.042c2.832,41.077,13.757,81.079,21.421,121.522
		c12.324,65.034,16.232,131.684,11.596,197.729c-0.52,7.407-1.12,15.048,1.23,22.086c1.944,5.823,5.767,10.786,9.521,15.626
		c9.658,12.447,19.315,24.895,28.973,37.343c11.842,15.262,24.753,31.305,43.007,37.371c7.803,2.593,16.103,3.166,24.3,3.719
		c59.165,3.993,118.33,7.985,177.494,11.978c15.931,1.075,31.934,2.15,47.843,0.796c15.349-1.308,30.407-4.857,45.493-7.993
		c85.885-17.853,174.077-22.45,261.737-20.058c8.686,0.237,17.913,0.409,25.378-4.072c5.075-3.047,8.751-7.92,12.612-12.425
		c11.427-13.332,25.534-24.32,41.215-32.102c6.145-3.05,12.772-5.796,17.129-11.125c4.275-5.23,5.724-12.188,6.812-18.876
		c12.501-76.866-4.673-155.414-1.703-233.249C2005.4,1496.512,2043.692,1312.535,2028.924,1278.281z"/>
	<path style="fill:#909493;" d="M2007.194,1288.706c-9.829-22.614-45.506-52.328-60.462-71.934
		c-7.734-10.139-15.927-20.655-27.489-26.033c-8.211-3.819-17.434-4.704-26.45-5.535c-38.043-3.507-76.086-7.014-114.128-10.521
		c-46.237-4.262-140.55,10.033-186.97,11.16c-85.492,2.074-222.739-14.291-238.123-7.29s-101.052,72.511-103.232,76.718
		c-2.669,5.15-9.98,172.626-8.453,194.601c2.709,38.984,13.163,76.949,20.495,115.334c11.792,61.722,15.531,124.978,11.095,187.659
		c-0.497,7.029-1.071,14.281,1.177,20.961c1.86,5.526,5.517,10.237,9.11,14.83c9.24,11.813,18.48,23.627,27.722,35.441
		c11.33,14.484,23.683,29.711,41.148,35.468c7.466,2.462,15.407,3.005,23.25,3.53c56.609,3.789,113.217,7.578,169.826,11.367
		c15.242,1.021,30.554,2.04,45.775,0.755c14.686-1.24,29.093-4.61,43.527-7.586c82.175-16.943,166.556-21.307,250.428-19.036
		c8.311,0.226,17.14,0.389,24.283-3.865c4.855-2.892,8.372-7.516,12.066-11.792c10.934-12.653,24.431-23.081,39.434-30.467
		c5.88-2.895,12.222-5.501,16.39-10.558c4.091-4.964,5.477-11.567,6.518-17.915c11.96-72.952-4.471-147.501-1.63-221.371
		C1984.687,1495.822,2021.325,1321.215,2007.194,1288.706z"/>
	<path style="fill:#A0A5A5;" d="M2007.306,1288.399c-9.83-22.614-45.506-52.328-60.462-71.933
		c-7.735-10.14-15.928-20.655-27.49-26.034c-8.21-3.819-17.433-4.704-26.449-5.535c-38.043-3.507-76.086-7.014-114.129-10.52
		c-46.237-4.262-140.55,10.033-186.969,11.16c-85.492,2.074-222.739-14.29-238.123-7.289c-15.384,7-101.052,72.51-103.232,76.717
		c-2.669,5.15-9.98,172.627-8.453,194.601c2.709,38.984,13.162,76.949,20.495,115.334c11.791,61.723,15.531,124.978,11.095,187.659
		c-0.498,7.03-1.071,14.282,1.177,20.961c0.26,0.771,0.562,1.524,0.886,2.266c24.449-12.677,48.824-39.546,65.71-52.95
		c17.174-13.632,34.574-27.497,47.44-45.252c18.399-25.391,26.137-56.704,38.247-85.628
		c31.449-75.116,95.451-135.932,172.074-163.508c29.401-10.581,60.493-16.494,88.915-29.48c22.103-10.099,42.07-24.24,63.019-36.554
		c44.083-25.91,94.06-44.002,145.187-43.217c25.487,0.392,51.092,5.432,76.311,1.72c13.445-1.979,27.122-7.338,37.764-15.688
		C2009.917,1297.951,2008.959,1292.203,2007.306,1288.399z"/>
	<path style="fill:#ADB3B3;" d="M1921.25,1326.874c-7.663-18.152-35.479-42.004-47.139-57.741
		c-6.03-8.139-12.418-16.58-21.433-20.897c-6.401-3.065-13.592-3.776-20.622-4.443c-29.66-2.816-59.32-5.63-88.979-8.444
		c-36.05-3.422-109.581,8.054-145.772,8.958c-66.654,1.665-173.659-11.472-185.653-5.851c-11.994,5.619-78.785,58.205-80.485,61.582
		c-2.082,4.134-7.781,138.569-6.591,156.208c2.112,31.294,10.262,61.769,15.979,92.58c9.193,49.545,12.109,100.321,8.65,150.637
		c-0.388,5.643-0.835,11.464,0.917,16.825c1.45,4.437,4.302,8.218,7.103,11.904c7.204,9.483,14.409,18.966,21.613,28.449
		c8.833,11.627,18.464,23.85,32.082,28.471c5.821,1.976,12.012,2.412,18.127,2.833c44.135,3.042,88.27,6.084,132.405,9.125
		c11.883,0.819,23.821,1.639,35.689,0.607c11.449-0.996,22.683-3.7,33.936-6.09c64.068-13.6,129.855-17.102,195.247-15.28
		c6.479,0.181,13.363,0.312,18.932-3.103c3.786-2.321,6.527-6.033,9.408-9.466c8.524-10.156,19.048-18.527,30.745-24.456
		c4.584-2.323,9.528-4.415,12.777-8.476c3.189-3.984,4.27-9.284,5.082-14.38c9.324-58.56-3.486-118.4-1.271-177.697
		C1903.702,1493.129,1932.268,1352.97,1921.25,1326.874z"/>
	<g>
		<path style="fill:#BEBFB6;" d="M1896.757,1294.334c1.55,1.724,3.183,3.496,4.868,5.307
			C1900.021,1297.864,1898.392,1296.093,1896.757,1294.334z"/>
		<path style="fill:#BEBFB6;" d="M1393.397,1772.153c-7.204-9.483-14.409-18.966-21.613-28.449
			c-2.801-3.688-5.652-7.468-7.103-11.904c-1.752-5.361-1.306-11.183-0.917-16.825c3.458-50.315,0.542-101.092-8.65-150.637
			c-5.717-30.813-13.867-61.287-15.979-92.58c-1.19-17.639,4.509-152.074,6.59-156.209c1.7-3.377,68.491-55.962,80.485-61.581
			c11.994-5.62,118.999,7.517,185.653,5.85c36.191-0.904,109.723-12.379,145.771-8.958c29.66,2.815,59.32,5.63,88.979,8.444
			c7.03,0.668,14.221,1.378,20.622,4.443c1.918,0.919,3.711,2.033,5.413,3.283c-5.618-7.514-11.69-14.987-19.992-18.963
			c-6.401-3.066-13.592-3.776-20.622-4.443c-29.659-2.815-59.319-5.63-88.979-8.445c-36.05-3.421-109.58,8.055-145.771,8.959
			c-66.654,1.665-173.659-11.471-185.653-5.852c-11.994,5.619-78.785,58.205-80.485,61.582
			c-2.082,4.134-7.781,138.569-6.591,156.208c2.112,31.294,10.262,61.769,15.979,92.58c9.193,49.545,12.108,100.321,8.65,150.637
			c-0.388,5.643-0.835,11.464,0.917,16.825c1.45,4.436,4.302,8.218,7.103,11.904c7.205,9.483,14.409,18.966,21.613,28.449
			c5.527,7.274,11.366,14.782,18.298,20.515C1395.856,1775.379,1394.619,1773.761,1393.397,1772.153z"/>
	</g>
	<path style="fill:#707272;" d="M1439.359,1224.13c8.414,5.774,14.307,16.522,11.272,26.266c8.185-0.771,13.095,8.463,19.155,14.018
		c9.256,8.484,23.134,8.814,35.69,8.664c-2.901,36.283,1.354,73.125,12.448,107.793c-1.41-44.781,3.712-89.762,15.155-133.078
		c-16.93-4.851-38.746,4.338-50.711-8.584c-8.314-8.978-8.023-25.885-19.582-29.899c-5.781-2.009-13.178,0.091-17.522-4.22
		c-3.918-3.889,9.336-18.734,2.096-24.987c0,0-38.357-4.062-52.673-3.022c0,0,15.106,24.336,16.333,37.233
		C1420.6,1217.078,1430.835,1218.279,1439.359,1224.13z"/>
	<path style="fill:#707272;" d="M1950.88,1618.601c-12.411,2.613-23.008,10.331-33.864,16.888
		c-10.855,6.557-23.301,12.261-35.811,10.177c-14.015-2.335-28.408-14.025-40.713-6.924c-8.438,4.869-10.313,15.956-15.061,24.462
		c-9.398,16.837-30.022,23.214-48.7,28.004c-2.683,0.688-5.639,1.35-8.124,0.128c-4.431-2.176-16.809,5.773-20.911,11.872
		c10.427-3.865,21.383-7.795,32.401-6.29c14.661,2.002,29.39,13.358,42.776,7.055c12.101-5.698,14.24-22.076,23.344-31.874
		c1.72-1.851,3.951-3.556,6.476-3.452c2.737,0.113,4.878,2.27,7.251,3.638c7.558,4.357,17.631,0.685,25.545,4.355
		c7.458,3.46,11.91,12.947,20.109,13.562c11.011,0.826,16.319-14.573,26.904-17.715c7.873-2.337,15.834,2.783,22.457,7.639
		c11.079,8.123,22.157,16.247,33.235,24.37c0-7.136-1.779-56.511-2.469-66.63C1984.629,1621.774,1967.996,1614.998,1950.88,1618.601
		z"/>
	<path style="fill:#707272;" d="M1401.176,1838.439c9.423-1.832,18.847-3.665,28.271-5.498
		c-3.056-16.823,2.283-38.033,18.689-42.852c4.684-1.376,9.716-1.201,14.396-2.589c4.68-1.388,9.304-5.173,9.165-10.052
		c-0.099-3.465-2.53-6.364-4.832-8.955c-8.459-9.521-16.919-19.042-25.378-28.564c-0.981-1.103-2.019-2.349-2.02-3.825
		c-0.002-1.884,1.645-3.294,3.112-4.475c24.868-20.003,37.894-53.749,32.916-85.272c4.986,18.248,9.973,36.495,14.959,54.743
		c0.642,2.349,1.283,4.853,0.565,7.18c-1.127,3.653-5.069,5.501-7.794,8.182c-9.271,9.121-2.68,25.134,6.398,34.446
		c9.078,9.313,21.013,17.971,22.404,30.901c-6.424,17.228-22.333,30.565-40.417,33.885c3.313,6.317,6.73,13.319,5.191,20.285
		c-0.596,2.697-1.91,5.182-2.679,7.834c-2.828,9.756,3.544,17.388,8.206,26.406c-21.28-1.022-35.307-2.415-56.041-3.188
		c-10.78-0.402-14.574-1.28-15.256-1.584C1408.743,1864.429,1402.671,1838.149,1401.176,1838.439z"/>
	<path style="fill:#ADB3B3;" d="M1265.393,1264.024c18.701,9.492,38.176,17.459,58.168,23.796c3.385,1.072,6.987,2.107,10.438,1.265
		c2.796-0.684,5.146-2.522,7.399-4.314c19.901-15.817,39.803-31.636,59.705-47.454c1.012-0.805,2.082-1.692,2.425-2.939
		c0.467-1.693-0.55-3.404-1.523-4.866c-7.521-11.311-15.042-22.62-22.563-33.931c-3.974-5.977-9.32-12.672-16.48-12.174
		c-3.432,0.238-6.484,2.164-9.366,4.042c-18.893,12.311-37.526,25.021-55.882,38.118
		C1289.796,1231.216,1246.357,1254.363,1265.393,1264.024z"/>
	<path style="fill:#ADB3B3;" d="M1249.476,1424.012c-0.607,4.962-1.097,10.52,1.992,14.45c2.415,3.072,6.418,4.329,10.178,5.396
		c13.878,3.937,27.857,7.521,41.919,10.745c1.691,0.389,3.551,0.753,5.091-0.046c1.222-0.633,1.992-1.884,2.567-3.133
		c3.91-8.491,1.268-18.661-3.403-26.758c-4.67-8.098-11.22-14.986-15.902-23.077c-6.085-10.515-8.768-22.599-11.369-34.466
		c-4.295-19.598-8.591-39.197-12.887-58.795c-0.813-3.709-2.235-19.568-6.085-18.979c-5.885,0.899-4.438,16.375-4.471,19.472
		c-0.202,19.249-0.94,38.493-2.212,57.701C1253.639,1385.464,1249.476,1405.104,1249.476,1424.012z"/>
	<path style="fill:#ADB3B3;" d="M1677.534,1228.682c9.712-1.217,19.684-2.516,28.279-7.197c7.076-3.854,12.771-9.768,18.347-15.586
		c6.101-6.368,12.201-12.735,18.302-19.104c1.292-1.348,2.686-3.174,1.958-4.894c-0.628-1.482-2.473-1.941-4.067-2.157
		c-18.382-2.491-36.888,1.922-55.219,4.767c-32.613,5.063-65.757,5.182-98.727,6.667c-8.342,0.375-19.073,2.979-19.862,11.293
		c-0.572,6.03,4.855,10.764,9.817,14.24c12.786,8.958,27.592,22.505,43.898,19.943
		C1639.292,1233.663,1658.379,1231.083,1677.534,1228.682z"/>
	<path style="fill:#ADB3B3;" d="M1832.996,1235.284c7.901,1.353,16.075,2.382,23.872,0.523c6.498-1.55,12.35-5.016,18.089-8.435
		c10.069-6,20.141-12,30.21-17.999c2.54-1.514,5.169-3.111,6.773-5.593c1.605-2.482,1.834-6.123-0.295-8.172
		c-1.388-1.336-3.41-1.717-5.311-2.031c-42.664-7.064-85.854-10.95-129.095-11.615c-2.612-0.04-5.413-0.015-7.566,1.468
		c-5.468,3.765-2.188,12.341,1.866,17.598c6.664,8.638,15.236,19.94,25.015,25.254
		C1806.909,1231.91,1821.526,1233.32,1832.996,1235.284z"/>
	<path style="fill:#ADB3B3;" d="M1285.343,1727.393c3.303-18.003-0.493-36.444-1.377-54.726c-0.162-3.352-0.2-6.845,1.201-9.894
		c2.429-5.29,8.728-7.91,14.546-7.739s11.306,2.581,16.623,4.95c4.531,2.02,9.063,4.038,13.594,6.058
		c2.447,1.091,5.009,2.272,6.576,4.445c1.432,1.986,1.822,4.517,2.138,6.944c0.905,6.949,1.544,13.933,1.916,20.93
		c0.247,4.647,0.302,9.602-2.114,13.579c-1.825,3.004-4.832,5.055-7.682,7.111c-12.03,8.68-22.821,19.075-31.944,30.773
		c-4.086,5.239-14.525,21.999-19.894,10.584C1275.17,1752.421,1283.837,1735.604,1285.343,1727.393z"/>
	<path style="fill:#818483;" d="M1860.539,1775.844c-0.626,0.803-1.269,1.682-1.317,2.7c-0.049,1.005,0.493,1.934,1.017,2.794
		c8.925,14.664,17.849,29.328,26.773,43.991c3.125,5.136,7.132,10.841,13.125,11.312c5.741,0.452,10.473-4.131,14.61-8.138
		c12.108-11.727,26.231-21.367,41.563-28.37c4.371-1.997,8.928-3.837,12.517-7.032c3.589-3.196,6.071-8.146,4.89-12.804
		c-1.344-5.299-6.692-8.397-11.551-10.902c-10.385-5.356-20.769-10.713-31.153-16.068c-7.433-3.834-18.948-12.957-27.696-12.017
		C1888.072,1742.949,1869.302,1764.599,1860.539,1775.844z"/>
	<path style="fill:#818483;" d="M1735.303,1785.783c-35.237,1.906-70.888,7.678-102.498,23.366c-2.959,1.469-6.249,3.552-6.53,6.844
		c-0.434,5.082,6.148,7.39,11.225,7.878c59.56,5.728,120.361-3.514,179.071,8.03c19.844,3.902,39.554,10.183,59.763,9.4
		c2.335-0.09,5.068-0.523,6.152-2.595c1.175-2.244-0.334-4.904-1.788-6.979c-9.087-12.953-18.173-25.906-27.259-38.859
		c-10.529-15.009-37.051-8.107-53.252-8.077C1778.558,1784.833,1756.912,1784.614,1735.303,1785.783z"/>
	<path style="fill:#818483;" d="M1950.609,1334.518c-4.188,0.544-8.644,1.277-11.756,4.133c-2.432,2.229-3.681,5.441-4.705,8.577
		c-12.67,38.795-2.651,82.204-15.156,121.054c-1.023,3.182-2.21,6.527-1.469,9.787c0.741,3.259,4.365,6.091,7.385,4.659
		c1.39-0.659,2.294-2.018,3.084-3.337c9.311-15.539,12.4-33.871,16.932-51.41c4.531-17.54,11.319-35.63,25.536-46.856
		c4.89-3.861,10.517-6.779,15.06-11.042c5.521-5.18,9.121-12.03,12.621-18.748
		C2014.063,1320.758,1965.633,1332.563,1950.609,1334.518z"/>
	<path style="fill:#A0A3A2;" d="M1413.608,1578.077c-8.671,7.431-14.782,17.472-19.148,28.022
		c-4.665,11.273-7.463,24.071-3.543,35.624c3.921,11.553,16.42,20.769,28.188,17.548c14.287-3.91,18.968-21.539,29.13-32.314
		c5.82-6.171,13.854-10.207,22.279-11.191c9.476-1.107,19.499,1.467,28.387-2c12.158-4.742,17.768-20.418,13.506-32.752
		s-16.408-20.834-29.221-23.305C1462.936,1553.805,1429.338,1564.599,1413.608,1578.077z"/>
	<path style="fill:#A0A3A2;" d="M1504.826,1656.805c0.745,10.82,7.974,21,18.038,25.042c15.86,6.37,35.121-3.783,42.243-19.32
		c1.918-4.185,3.142-8.828,2.535-13.392c-1.136-8.538-8.562-15.165-16.711-17.954
		C1529.683,1623.909,1502.869,1628.371,1504.826,1656.805z"/>
	<path style="fill:#A0A3A2;" d="M1373.226,1518.941c-0.236,8.445,0.283,17.078,3.358,24.945c3.075,7.868,9.026,14.938,16.999,17.732
		c11.59,4.061,25.836-2.931,29.713-14.584c3.844-11.554-1.731-23.827-4.377-35.713c-2.158-9.698-2.341-19.832-0.533-29.601
		c1.437-7.767,4.07-16.032,0.93-23.281c-4.223-9.749-18.2-12.549-27.215-6.926
		C1375.903,1461.619,1373.698,1502.045,1373.226,1518.941z"/>
	<path style="fill:#A0A3A2;" d="M1349.867,1437.347c3.515,3.758,9.091,4.756,14.236,4.661c13.448-0.249,25.992-6.397,38.022-12.413
		c4.958-2.479,10.517-5.745,11.352-11.226c0.581-3.812-1.431-7.588-4.052-10.415
		C1389.367,1386.32,1327.303,1413.213,1349.867,1437.347z"/>
	<path style="fill:#A0A3A2;" d="M1407.418,1684.411c-4.573,0.153-9.096,1.599-12.91,4.127c-4.773,3.165-8.463,8.205-9.219,13.883
		c-1.225,9.198,5.808,18.224,14.656,21.021c8.849,2.796,18.752,0.215,26.435-4.99c7.682-5.205,13.45-12.767,18.451-20.584
		c2.226-3.478,4.396-7.266,4.388-11.395c-0.011-6.43-5.617-11.871-11.864-13.394c-6.246-1.522-12.858,0.137-18.745,2.722
		c-3.647,1.603-7.138,3.562-10.406,5.84L1407.418,1684.411z"/>
	<path style="fill:#A0A3A2;" d="M1575.399,1293.29c-7.254,6.604-10.57,17.465-7.572,26.806c2.608,8.131,9.372,14.297,16.696,18.688
		s15.405,7.384,22.831,11.6c14.176,8.046,26.541,20.736,42.687,22.973c18.516,2.565,37.679-12.056,40.097-30.592
		c2.473-18.965-11.093-37.136-28.046-45.988C1642.062,1286.315,1594.655,1275.756,1575.399,1293.29z"/>
	<path style="fill:#A0A3A2;" d="M1697.169,1278.242c-1.32,5.084,1.506,10.52,5.603,13.809s9.261,4.88,14.289,6.4
		c5.199,1.573,10.397,3.146,15.597,4.718c7.88,2.383,15.902,4.788,24.134,4.771c8.233-0.017,16.858-2.815,22.044-9.21
		c5.186-6.393,5.738-16.751-0.152-22.502c-4.286-4.185-10.675-5.156-16.616-5.92
		C1749.167,1268.65,1702.585,1257.255,1697.169,1278.242z"/>
	<path style="fill:#A0A3A2;" d="M1825.077,1563.748c-5.556,3.129-10.211,7.606-14.799,12.033
		c-11.074,10.686-22.148,21.371-33.224,32.057c-3.706,3.576-7.554,7.375-9.062,12.301c-3.252,10.623,6.552,21.789,17.493,23.717
		c10.941,1.927,21.936-2.83,31.468-8.538s18.632-12.578,29.329-15.581c10.091-2.833,22.117-2.579,29.06-10.432
		c2.316-2.62,3.767-5.896,4.817-9.231c2.289-7.266,2.794-15.29,0.167-22.439C1873.334,1558.596,1840.843,1554.869,1825.077,1563.748
		z"/>
	<path style="fill:#A0A3A2;" d="M1861.619,1493.198c0,0-23.322-3.522-31.696,10.076c-4.81,7.812-4.004,18.79,2.469,25.289
		c3.374,3.386,7.847,5.459,12.383,6.964c3.937,1.305,8.06,2.24,12.2,2.031c10.641-0.538,20.2-9.597,21.31-20.192
		S1871.917,1495.928,1861.619,1493.198z"/>
	<path style="opacity:0.35;fill:#FFFFFF;" d="M1374.507,1351.571c-13.803,34.599-9.05,74.366,4.764,108.961
		c3.702,9.271,8.207,18.542,15.587,25.264c7.38,6.722,18.228,10.431,27.607,7.016c10.65-3.878,16.56-15.788,17.173-27.106
		c0.613-11.317-2.94-22.381-5.808-33.347c-3.505-13.399-6.037-27.053-7.568-40.818c-1.271-11.426-1.83-23.165,1.183-34.259
		c3.013-11.095,10.097-21.57,20.601-26.243c6.428-2.86,13.639-3.393,20.317-5.606c6.677-2.213,13.354-6.977,14.392-13.934
		c3.946-26.474-44.147-17.991-56.314-13.084C1402.941,1307.891,1383.844,1328.169,1374.507,1351.571z"/>
	<path style="opacity:0.35;fill:#FFFFFF;" d="M1850.374,1518.72c3.977,25.699,3.554,52.073-1.244,77.632
		c-1.295,6.895-2.638,14.886,1.942,20.199c5.672,6.578,17.234,4.039,22.646-2.754c5.411-6.794,6.343-16.018,6.95-24.682
		c3.283-46.813,3.367-93.785,3.45-140.713c0.016-8.938-0.034-18.194-3.736-26.336c-13.496-29.66-39.984-13.883-42.281,11.738
		C1835.541,1462.385,1846.056,1490.807,1850.374,1518.72z"/>
	<path style="opacity:0.35;fill:#FFFFFF;" d="M1790.434,1733.011c-28.151,2.646-57.863-4.507-84.074,6.1
		c-3.818,1.545-7.827,3.823-9.12,7.734c-1.328,4.017,0.817,8.557,4.153,11.159c3.335,2.604,7.616,3.636,11.795,4.297
		c12.6,1.992,25.453,1.215,38.186,0.432c24.758-1.523,49.517-3.047,74.275-4.569c3.876-0.238,7.821-0.491,11.452-1.871
		c6.724-2.557,11.424-8.566,15.714-14.34c3.242-4.362,6.62-9.353,5.907-14.739
		C1855.404,1702.168,1803.589,1731.773,1790.434,1733.011z"/>
</g>
</svg>
